<svg xmlns="http://www.w3.org/2000/svg" width="1440" height="900"><path d="M659,269L880,194L661,-72Z" fill="#f98aac" stroke="#f98aac" stroke-width="1.51"/><path d="M880,194L988,-23L661,-72Z" fill="#f68bad" stroke="#f68bad" stroke-width="1.51"/><path d="M880,194L1141,-22L988,-23Z" fill="#f080ab" stroke="#f080ab" stroke-width="1.51"/><path d="M997,-382L470,-366L661,-72Z" fill="#fda6be" stroke="#fda6be" stroke-width="1.51"/><path d="M954,649L1218,274L880,194Z" fill="#ec5da0" stroke="#ec5da0" stroke-width="1.51"/><path d="M880,194L1218,274L1141,-22Z" fill="#eb73a6" stroke="#eb73a6" stroke-width="1.51"/><path d="M148,21L240,367L659,269Z" fill="#faa0b5" stroke="#faa0b5" stroke-width="1.51"/><path d="M997,-382L661,-72L988,-23Z" fill="#f696b4" stroke="#f696b4" stroke-width="1.51"/><path d="M1148,-270L997,-382L988,-23Z" fill="#f18fb6" stroke="#f18fb6" stroke-width="1.51"/><path d="M148,21L659,269L661,-72Z" fill="#fba1b5" stroke="#fba1b5" stroke-width="1.51"/><path d="M659,269L954,649L880,194Z" fill="#f36aa3" stroke="#f36aa3" stroke-width="1.51"/><path d="M240,367L491,606L659,269Z" fill="#f983aa" stroke="#f983aa" stroke-width="1.51"/><path d="M1480,-270L1148,-270L1141,-22Z" fill="#e283ac" stroke="#e283ac" stroke-width="1.51"/><path d="M1141,-22L1148,-270L988,-23Z" fill="#ec86ae" stroke="#ec86ae" stroke-width="1.51"/><path d="M470,-366L148,21L661,-72Z" fill="#fcb4bf" stroke="#fcb4bf" stroke-width="1.51"/><path d="M491,606L954,649L659,269Z" fill="#f464a1" stroke="#f464a1" stroke-width="1.51"/><path d="M954,649L1107,668L1218,274Z" fill="#e34699" stroke="#e34699" stroke-width="1.51"/><path d="M1130,862L1107,668L954,649Z" fill="#d93295" stroke="#d93295" stroke-width="1.51"/><path d="M240,367L208,597L491,606Z" fill="#f683ab" stroke="#f683ab" stroke-width="1.51"/><path d="M491,606L619,851L954,649Z" fill="#ea549d" stroke="#ea549d" stroke-width="1.51"/><path d="M-49,561L208,597L240,367Z" fill="#f88fae" stroke="#f88fae" stroke-width="1.51"/><path d="M1,-441L149,-378L470,-366Z" fill="#fdcfd0" stroke="#fdcfd0" stroke-width="1.51"/><path d="M470,-366L149,-378L148,21Z" fill="#fdc4c7" stroke="#fdc4c7" stroke-width="1.51"/><path d="M133,887L619,851L491,606Z" fill="#e468a1" stroke="#e468a1" stroke-width="1.51"/><path d="M1640,-13L1141,-22L1218,274Z" fill="#da6d9e" stroke="#da6d9e" stroke-width="1.51"/><path d="M1640,-13L1480,-270L1141,-22Z" fill="#d478a1" stroke="#d478a1" stroke-width="1.51"/><path d="M1148,-270L1480,-270L997,-382Z" fill="#e68cb4" stroke="#e68cb4" stroke-width="1.51"/><path d="M-182,28L-121,190L148,21Z" fill="#fcc0c1" stroke="#fcc0c1" stroke-width="1.51"/><path d="M148,21L-121,190L240,367Z" fill="#fbb1ba" stroke="#fbb1ba" stroke-width="1.51"/><path d="M619,851L817,951L954,649Z" fill="#db4295" stroke="#db4295" stroke-width="1.51"/><path d="M1547,691L1608,337L1218,274Z" fill="#cc418f" stroke="#cc418f" stroke-width="1.51"/><path d="M817,951L1130,862L954,649Z" fill="#d53392" stroke="#d53392" stroke-width="1.51"/><path d="M-121,190L-49,561L240,367Z" fill="#fba2b5" stroke="#fba2b5" stroke-width="1.51"/><path d="M208,597L133,887L491,606Z" fill="#ed77a8" stroke="#ed77a8" stroke-width="1.51"/><path d="M619,851L579,1257L817,951Z" fill="#cb4490" stroke="#cb4490" stroke-width="1.51"/><path d="M149,-378L-182,28L148,21Z" fill="#fcc9c4" stroke="#fcc9c4" stroke-width="1.51"/><path d="M997,-382L1,-441L470,-366Z" fill="#febdca" stroke="#febdca" stroke-width="1.51"/><path d="M1,-441L-182,28L149,-378Z" fill="#fdd3cf" stroke="#fdd3cf" stroke-width="1.51"/><path d="M-121,190L-374,516L-49,561Z" fill="#fda6bc" stroke="#fda6bc" stroke-width="1.51"/><path d="M1547,691L1218,274L1107,668Z" fill="#d43a91" stroke="#d43a91" stroke-width="1.51"/><path d="M1608,337L1640,-13L1218,274Z" fill="#cc5e99" stroke="#cc5e99" stroke-width="1.51"/><path d="M-49,561L133,887L208,597Z" fill="#f083ac" stroke="#f083ac" stroke-width="1.51"/><path d="M1130,862L1547,691L1107,668Z" fill="#ca258d" stroke="#ca258d" stroke-width="1.51"/><path d="M-49,561L-142,977L133,887Z" fill="#e581a9" stroke="#e581a9" stroke-width="1.51"/><path d="M-182,28L-365,208L-121,190Z" fill="#fdc2c8" stroke="#fdc2c8" stroke-width="1.51"/><path d="M-507,-3L-365,208L-182,28Z" fill="#fdccce" stroke="#fdccce" stroke-width="1.51"/><path d="M1608,337L1847,60L1640,-13Z" fill="#bc5f98" stroke="#bc5f98" stroke-width="1.51"/><path d="M1640,-13L1787,-338L1480,-270Z" fill="#c478a5" stroke="#c478a5" stroke-width="1.51"/><path d="M1985,179L1847,60L1608,337Z" fill="#b35794" stroke="#b35794" stroke-width="1.51"/><path d="M997,-382L1787,-338L1,-441Z" fill="#f79fbf" stroke="#f79fbf" stroke-width="1.51"/><path d="M1480,-270L1787,-338L997,-382Z" fill="#d684ae" stroke="#d684ae" stroke-width="1.51"/><path d="M1847,60L1787,-338L1640,-13Z" fill="#b96f9e" stroke="#b96f9e" stroke-width="1.51"/><path d="M1280,1308L1593,860L1130,862Z" fill="#ab077f" stroke="#ab077f" stroke-width="1.51"/><path d="M133,887L294,1170L619,851Z" fill="#d36399" stroke="#d36399" stroke-width="1.51"/><path d="M-94,1189L294,1170L133,887Z" fill="#c86e9c" stroke="#c86e9c" stroke-width="1.51"/><path d="M1863,716L1985,179L1608,337Z" fill="#b13e8c" stroke="#b13e8c" stroke-width="1.51"/><path d="M1130,862L1593,860L1547,691Z" fill="#b81584" stroke="#b81584" stroke-width="1.51"/><path d="M836,1304L1130,862L817,951Z" fill="#c12c8b" stroke="#c12c8b" stroke-width="1.51"/><path d="M294,1170L579,1257L619,851Z" fill="#c45394" stroke="#c45394" stroke-width="1.51"/><path d="M-365,208L-374,516L-121,190Z" fill="#fdb6c5" stroke="#fdb6c5" stroke-width="1.51"/><path d="M579,1257L836,1304L817,951Z" fill="#b9398c" stroke="#b9398c" stroke-width="1.51"/><path d="M-374,516L-142,977L-49,561Z" fill="#f291b6" stroke="#f291b6" stroke-width="1.51"/><path d="M-456,-432L-507,-3L-182,28Z" fill="#fedbd7" stroke="#fedbd7" stroke-width="1.51"/><path d="M-365,208L-507,-3L-374,516Z" fill="#fec1cc" stroke="#fec1cc" stroke-width="1.51"/><path d="M1847,60L1985,179L1787,-338Z" fill="#b06898" stroke="#b06898" stroke-width="1.51"/><path d="M1863,716L1608,337L1547,691Z" fill="#b42d8a" stroke="#b42d8a" stroke-width="1.51"/><path d="M1,-441L-456,-432L-182,28Z" fill="#fddcd9" stroke="#fddcd9" stroke-width="1.51"/><path d="M1818,842L1863,716L1547,691Z" fill="#a41784" stroke="#a41784" stroke-width="1.51"/><path d="M1818,842L1547,691L1593,860Z" fill="#a71383" stroke="#a71383" stroke-width="1.51"/><path d="M1868,1287L1818,842L1593,860Z" fill="#8c0179" stroke="#8c0179" stroke-width="1.51"/><path d="M836,1304L1280,1308L1130,862Z" fill="#ad1b86" stroke="#ad1b86" stroke-width="1.51"/><path d="M-457,1000L-94,1189L-142,977Z" fill="#cd7eaa" stroke="#cd7eaa" stroke-width="1.51"/><path d="M-142,977L-94,1189L133,887Z" fill="#d077a2" stroke="#d077a2" stroke-width="1.51"/><path d="M294,1170L-94,1189L579,1257Z" fill="#ba6198" stroke="#ba6198" stroke-width="1.51"/><path d="M579,1257L-479,1352L836,1304Z" fill="#b05b95" stroke="#b05b95" stroke-width="1.51"/><path d="M1280,1308L1501,1299L1593,860Z" fill="#93017a" stroke="#93017a" stroke-width="1.51"/><path d="M-374,516L-457,1000L-142,977Z" fill="#e58cb4" stroke="#e58cb4" stroke-width="1.51"/><path d="M-507,-3L-457,1000L-374,516Z" fill="#fca9c3" stroke="#fca9c3" stroke-width="1.51"/><path d="M1280,1308L1868,1287L1501,1299Z" fill="#7d0077" stroke="#7d0077" stroke-width="1.51"/><path d="M1501,1299L1868,1287L1593,860Z" fill="#840178" stroke="#840178" stroke-width="1.51"/><path d="M1818,842L1868,1287L1863,716Z" fill="#8b0078" stroke="#8b0078" stroke-width="1.51"/><path d="M1863,716L1868,1287L1985,179Z" fill="#9b1782" stroke="#9b1782" stroke-width="1.51"/><path d="M-457,1000L-479,1352L-94,1189Z" fill="#bf7eab" stroke="#bf7eab" stroke-width="1.51"/><path d="M-94,1189L-479,1352L579,1257Z" fill="#b56d9c" stroke="#b56d9c" stroke-width="1.51"/><path d="M836,1304L-479,1352L1280,1308Z" fill="#ad488e" stroke="#ad488e" stroke-width="1.51"/><path d="M-507,-3L-479,1352L-457,1000Z" fill="#eb95bc" stroke="#eb95bc" stroke-width="1.51"/></svg>