<svg xmlns="http://www.w3.org/2000/svg" width="1440" height="900"><path d="M819,280L612,248L591,631Z" fill="#fe953f" stroke="#fe953f" stroke-width="1.51"/><path d="M591,631L933,713L819,280Z" fill="#fd7e37" stroke="#fd7e37" stroke-width="1.51"/><path d="M612,248L315,637L591,631Z" fill="#fe933f" stroke="#fe933f" stroke-width="1.51"/><path d="M591,631L505,967L933,713Z" fill="#fa6e31" stroke="#fa6e31" stroke-width="1.51"/><path d="M612,248L297,216L315,637Z" fill="#fea546" stroke="#fea546" stroke-width="1.51"/><path d="M1138,613L1126,318L819,280Z" fill="#fd7735" stroke="#fd7735" stroke-width="1.51"/><path d="M962,-119L547,-141L612,248Z" fill="#ffb156" stroke="#ffb156" stroke-width="1.51"/><path d="M933,713L1138,613L819,280Z" fill="#fd6e32" stroke="#fd6e32" stroke-width="1.51"/><path d="M315,637L505,967L591,631Z" fill="#fc7d37" stroke="#fc7d37" stroke-width="1.51"/><path d="M933,713L1261,995L1138,613Z" fill="#f74426" stroke="#f74426" stroke-width="1.51"/><path d="M612,248L547,-141L297,216Z" fill="#ffb452" stroke="#ffb452" stroke-width="1.51"/><path d="M962,-119L612,248L819,280Z" fill="#fe9f47" stroke="#fe9f47" stroke-width="1.51"/><path d="M1126,318L962,-119L819,280Z" fill="#ff9040" stroke="#ff9040" stroke-width="1.51"/><path d="M505,967L914,1033L933,713Z" fill="#f35b2a" stroke="#f35b2a" stroke-width="1.51"/><path d="M547,-141L303,-96L297,216Z" fill="#fec35e" stroke="#fec35e" stroke-width="1.51"/><path d="M315,637L226,926L505,967Z" fill="#f97e38" stroke="#f97e38" stroke-width="1.51"/><path d="M505,967L898,1195L914,1033Z" fill="#e8562c" stroke="#e8562c" stroke-width="1.51"/><path d="M-152,572L226,926L315,637Z" fill="#ff944a" stroke="#ff944a" stroke-width="1.51"/><path d="M-18,214L315,637L297,216Z" fill="#ffb253" stroke="#ffb253" stroke-width="1.51"/><path d="M1511,197L1248,-5L1126,318Z" fill="#f77c37" stroke="#f77c37" stroke-width="1.51"/><path d="M1126,318L1248,-5L962,-119Z" fill="#fe8d44" stroke="#fe8d44" stroke-width="1.51"/><path d="M303,-96L-18,214L297,216Z" fill="#ffc560" stroke="#ffc560" stroke-width="1.51"/><path d="M914,1033L1261,995L933,713Z" fill="#f13e24" stroke="#f13e24" stroke-width="1.51"/><path d="M512,1388L898,1195L505,967Z" fill="#df5d33" stroke="#df5d33" stroke-width="1.51"/><path d="M1265,1184L1261,995L914,1033Z" fill="#e22d24" stroke="#e22d24" stroke-width="1.51"/><path d="M1577,522L1511,197L1126,318Z" fill="#f1682f" stroke="#f1682f" stroke-width="1.51"/><path d="M1160,-355L892,-348L962,-119Z" fill="#ffa763" stroke="#ffa763" stroke-width="1.51"/><path d="M962,-119L892,-348L547,-141Z" fill="#ffb463" stroke="#ffb463" stroke-width="1.51"/><path d="M547,-141L329,-354L303,-96Z" fill="#ffcb6e" stroke="#ffcb6e" stroke-width="1.51"/><path d="M303,-96L-139,-42L-18,214Z" fill="#ffd471" stroke="#ffd471" stroke-width="1.51"/><path d="M892,-348L498,-357L547,-141Z" fill="#ffc16f" stroke="#ffc16f" stroke-width="1.51"/><path d="M-18,214L-152,572L315,637Z" fill="#ffb158" stroke="#ffb158" stroke-width="1.51"/><path d="M1577,522L1126,318L1138,613Z" fill="#f5602c" stroke="#f5602c" stroke-width="1.51"/><path d="M1248,-5L1160,-355L962,-119Z" fill="#ff9b56" stroke="#ff9b56" stroke-width="1.51"/><path d="M498,-357L329,-354L547,-141Z" fill="#ffcb74" stroke="#ffcb74" stroke-width="1.51"/><path d="M1553,962L1577,522L1138,613Z" fill="#ed3724" stroke="#ed3724" stroke-width="1.51"/><path d="M-98,1029L247,1261L226,926Z" fill="#ec8145" stroke="#ec8145" stroke-width="1.51"/><path d="M226,926L247,1261L505,967Z" fill="#eb7539" stroke="#eb7539" stroke-width="1.51"/><path d="M892,-348L1545,-424L498,-357Z" fill="#ffad6c" stroke="#ffad6c" stroke-width="1.51"/><path d="M1545,-424L1160,-355L1248,-5Z" fill="#fb965a" stroke="#fb965a" stroke-width="1.51"/><path d="M1261,995L1553,962L1138,613Z" fill="#ea2d20" stroke="#ea2d20" stroke-width="1.51"/><path d="M898,1195L1265,1184L914,1033Z" fill="#e13628" stroke="#e13628" stroke-width="1.51"/><path d="M512,1388L1265,1184L898,1195Z" fill="#d5432d" stroke="#d5432d" stroke-width="1.51"/><path d="M-18,214L-413,504L-152,572Z" fill="#ffbd69" stroke="#ffbd69" stroke-width="1.51"/><path d="M-91,-413L-139,-42L303,-96Z" fill="#ffdf84" stroke="#ffdf84" stroke-width="1.51"/><path d="M247,1261L512,1388L505,967Z" fill="#de6a37" stroke="#de6a37" stroke-width="1.51"/><path d="M-152,572L-98,1029L226,926Z" fill="#fc934e" stroke="#fc934e" stroke-width="1.51"/><path d="M1265,1184L1553,962L1261,995Z" fill="#dc191f" stroke="#dc191f" stroke-width="1.51"/><path d="M1785,-83L1636,2L1981,395Z" fill="#d87240" stroke="#d87240" stroke-width="1.51"/><path d="M1981,395L1636,2L1511,197Z" fill="#e06d39" stroke="#e06d39" stroke-width="1.51"/><path d="M1511,197L1636,2L1248,-5Z" fill="#f07e3f" stroke="#f07e3f" stroke-width="1.51"/><path d="M-152,572L-447,1025L-98,1029Z" fill="#fc975b" stroke="#fc975b" stroke-width="1.51"/><path d="M-479,188L-413,504L-18,214Z" fill="#ffc975" stroke="#ffc975" stroke-width="1.51"/><path d="M-422,1363L-34,1339L-98,1029Z" fill="#de875a" stroke="#de875a" stroke-width="1.51"/><path d="M-98,1029L-34,1339L247,1261Z" fill="#e1814c" stroke="#e1814c" stroke-width="1.51"/><path d="M247,1261L-34,1339L512,1388Z" fill="#cf7041" stroke="#cf7041" stroke-width="1.51"/><path d="M-139,-42L-479,188L-18,214Z" fill="#ffd479" stroke="#ffd479" stroke-width="1.51"/><path d="M329,-354L-91,-413L303,-96Z" fill="#ffdb83" stroke="#ffdb83" stroke-width="1.51"/><path d="M498,-357L-91,-413L329,-354Z" fill="#ffdb86" stroke="#ffdb86" stroke-width="1.51"/><path d="M1545,-424L-91,-413L498,-357Z" fill="#ffc578" stroke="#ffc578" stroke-width="1.51"/><path d="M1553,962L1803,848L1577,522Z" fill="#dc2a25" stroke="#dc2a25" stroke-width="1.51"/><path d="M1607,1251L1803,848L1553,962Z" fill="#ce0c23" stroke="#ce0c23" stroke-width="1.51"/><path d="M-496,10L-479,188L-139,-42Z" fill="#ffdd89" stroke="#ffdd89" stroke-width="1.51"/><path d="M1803,848L1850,721L1577,522Z" fill="#da3029" stroke="#da3029" stroke-width="1.51"/><path d="M1981,395L1511,197L1577,522Z" fill="#e05f33" stroke="#e05f33" stroke-width="1.51"/><path d="M1636,2L1545,-424L1248,-5Z" fill="#f28c4f" stroke="#f28c4f" stroke-width="1.51"/><path d="M1785,-83L1545,-424L1636,2Z" fill="#e88854" stroke="#e88854" stroke-width="1.51"/><path d="M1160,-355L1545,-424L892,-348Z" fill="#ffa066" stroke="#ffa066" stroke-width="1.51"/><path d="M1265,1184L1607,1251L1553,962Z" fill="#cf0e22" stroke="#cf0e22" stroke-width="1.51"/><path d="M512,1388L1607,1251L1265,1184Z" fill="#cf2827" stroke="#cf2827" stroke-width="1.51"/><path d="M-516,-274L-496,10L-139,-42Z" fill="#ffe897" stroke="#ffe897" stroke-width="1.51"/><path d="M-413,504L-447,1025L-152,572Z" fill="#ffa667" stroke="#ffa667" stroke-width="1.51"/><path d="M-479,188L-447,1025L-413,504Z" fill="#ffb674" stroke="#ffb674" stroke-width="1.51"/><path d="M-496,10L-447,1025L-479,188Z" fill="#ffc67c" stroke="#ffc67c" stroke-width="1.51"/><path d="M1850,721L1981,395L1577,522Z" fill="#d5482e" stroke="#d5482e" stroke-width="1.51"/><path d="M1947,1283L1981,395L1850,721Z" fill="#c32326" stroke="#c32326" stroke-width="1.51"/><path d="M-496,10L-516,-274L-447,1025Z" fill="#ffd183" stroke="#ffd183" stroke-width="1.51"/><path d="M-91,-413L-516,-274L-139,-42Z" fill="#ffea9a" stroke="#ffea9a" stroke-width="1.51"/><path d="M-447,1025L-422,1363L-98,1029Z" fill="#ea8f61" stroke="#ea8f61" stroke-width="1.51"/><path d="M-34,1339L-422,1363L512,1388Z" fill="#cc7b4e" stroke="#cc7b4e" stroke-width="1.51"/><path d="M1607,1251L1947,1283L1803,848Z" fill="#bb0425" stroke="#bb0425" stroke-width="1.51"/><path d="M1803,848L1947,1283L1850,721Z" fill="#c20d22" stroke="#c20d22" stroke-width="1.51"/><path d="M512,1388L1947,1283L1607,1251Z" fill="#c31223" stroke="#c31223" stroke-width="1.51"/><path d="M1785,-83L1921,-481L1545,-424Z" fill="#e28b62" stroke="#e28b62" stroke-width="1.51"/><path d="M1545,-424L1921,-481L-91,-413Z" fill="#ffa66e" stroke="#ffa66e" stroke-width="1.51"/><path d="M1981,395L1921,-481L1785,-83Z" fill="#d07c4c" stroke="#d07c4c" stroke-width="1.51"/></svg>