<svg xmlns="http://www.w3.org/2000/svg" width="1440" height="900"><path d="M643,241L908,203L788,-18Z" fill="#615db9" stroke="#615db9" stroke-width="1.51"/><path d="M788,-18L562,-76L643,241Z" fill="#7677c3" stroke="#7677c3" stroke-width="1.51"/><path d="M788,-18L604,-273L562,-76Z" fill="#7d81c0" stroke="#7d81c0" stroke-width="1.51"/><path d="M788,-18L830,-328L604,-273Z" fill="#6968ab" stroke="#6968ab" stroke-width="1.51"/><path d="M1188,-69L830,-328L788,-18Z" fill="#7788c8" stroke="#7788c8" stroke-width="1.51"/><path d="M908,203L1188,-69L788,-18Z" fill="#7788d4" stroke="#7788d4" stroke-width="1.51"/><path d="M562,-76L287,12L643,241Z" fill="#8892d0" stroke="#8892d0" stroke-width="1.51"/><path d="M604,-273L287,12L562,-76Z" fill="#91a1cf" stroke="#91a1cf" stroke-width="1.51"/><path d="M287,12L206,173L643,241Z" fill="#8993d1" stroke="#8993d1" stroke-width="1.51"/><path d="M908,203L1324,281L1188,-69Z" fill="#6982d7" stroke="#6982d7" stroke-width="1.51"/><path d="M1276,603L1324,281L908,203Z" fill="#3d52c0" stroke="#3d52c0" stroke-width="1.51"/><path d="M643,241L806,721L908,203Z" fill="#2d269e" stroke="#2d269e" stroke-width="1.51"/><path d="M206,173L459,634L643,241Z" fill="#6159b5" stroke="#6159b5" stroke-width="1.51"/><path d="M459,634L806,721L643,241Z" fill="#2f2ba2" stroke="#2f2ba2" stroke-width="1.51"/><path d="M806,721L1276,603L908,203Z" fill="#2236ae" stroke="#2236ae" stroke-width="1.51"/><path d="M1324,281L1568,-32L1188,-69Z" fill="#79abf2" stroke="#79abf2" stroke-width="1.51"/><path d="M1276,603L1452,365L1324,281Z" fill="#3258c9" stroke="#3258c9" stroke-width="1.51"/><path d="M1188,-69L1173,-477L830,-328Z" fill="#6578b3" stroke="#6578b3" stroke-width="1.51"/><path d="M830,-328L143,-469L604,-273Z" fill="#6b6b9b" stroke="#6b6b9b" stroke-width="1.51"/><path d="M1545,-422L1173,-477L1188,-69Z" fill="#648ac0" stroke="#648ac0" stroke-width="1.51"/><path d="M206,173L125,589L459,634Z" fill="#6761ba" stroke="#6761ba" stroke-width="1.51"/><path d="M459,634L600,950L806,721Z" fill="#394dbd" stroke="#394dbd" stroke-width="1.51"/><path d="M1452,365L1568,-32L1324,281Z" fill="#5e84d6" stroke="#5e84d6" stroke-width="1.51"/><path d="M806,721L936,952L1276,603Z" fill="#2757ca" stroke="#2757ca" stroke-width="1.51"/><path d="M235,890L600,950L459,634Z" fill="#5a74d2" stroke="#5a74d2" stroke-width="1.51"/><path d="M600,950L936,952L806,721Z" fill="#2750c4" stroke="#2750c4" stroke-width="1.51"/><path d="M287,12L-89,-66L206,173Z" fill="#b3d9ef" stroke="#b3d9ef" stroke-width="1.51"/><path d="M206,173L-108,336L125,589Z" fill="#8a94d1" stroke="#8a94d1" stroke-width="1.51"/><path d="M604,-273L143,-469L287,12Z" fill="#8da1bf" stroke="#8da1bf" stroke-width="1.51"/><path d="M1173,-477L143,-469L830,-328Z" fill="#4c3f7f" stroke="#4c3f7f" stroke-width="1.51"/><path d="M143,-469L-89,-66L287,12Z" fill="#aed9e0" stroke="#aed9e0" stroke-width="1.51"/><path d="M-89,-66L-108,336L206,173Z" fill="#a6c5e2" stroke="#a6c5e2" stroke-width="1.51"/><path d="M-104,844L235,890L125,589Z" fill="#84abea" stroke="#84abea" stroke-width="1.51"/><path d="M125,589L235,890L459,634Z" fill="#6c80d3" stroke="#6c80d3" stroke-width="1.51"/><path d="M936,952L1323,910L1276,603Z" fill="#2770df" stroke="#2770df" stroke-width="1.51"/><path d="M1276,603L1613,699L1452,365Z" fill="#295ac6" stroke="#295ac6" stroke-width="1.51"/><path d="M1452,365L1781,251L1568,-32Z" fill="#5a75b9" stroke="#5a75b9" stroke-width="1.51"/><path d="M1568,-32L1545,-422L1188,-69Z" fill="#76a9db" stroke="#76a9db" stroke-width="1.51"/><path d="M1323,910L1613,699L1276,603Z" fill="#2577e3" stroke="#2577e3" stroke-width="1.51"/><path d="M1568,-32L1850,-9L1545,-422Z" fill="#6d93b2" stroke="#6d93b2" stroke-width="1.51"/><path d="M1827,631L1781,251L1452,365Z" fill="#2e3c90" stroke="#2e3c90" stroke-width="1.51"/><path d="M-427,237L-175,584L-108,336Z" fill="#6a69a4" stroke="#6a69a4" stroke-width="1.51"/><path d="M143,-469L-106,-425L-89,-66Z" fill="#98bbbb" stroke="#98bbbb" stroke-width="1.51"/><path d="M-108,336L-175,584L125,589Z" fill="#757bbe" stroke="#757bbe" stroke-width="1.51"/><path d="M-427,237L-108,336L-89,-66Z" fill="#8da0bf" stroke="#8da0bf" stroke-width="1.51"/><path d="M1781,251L1850,-9L1568,-32Z" fill="#6683ac" stroke="#6683ac" stroke-width="1.51"/><path d="M-175,584L-104,844L125,589Z" fill="#7b92d1" stroke="#7b92d1" stroke-width="1.51"/><path d="M507,1349L945,1260L600,950Z" fill="#2c388c" stroke="#2c388c" stroke-width="1.51"/><path d="M507,1349L600,950L235,890Z" fill="#5471c0" stroke="#5471c0" stroke-width="1.51"/><path d="M600,950L945,1260L936,952Z" fill="#284fb4" stroke="#284fb4" stroke-width="1.51"/><path d="M936,952L945,1260L1323,910Z" fill="#2968cb" stroke="#2968cb" stroke-width="1.51"/><path d="M1900,845L1827,631L1613,699Z" fill="#294c97" stroke="#294c97" stroke-width="1.51"/><path d="M1613,699L1827,631L1452,365Z" fill="#2949a3" stroke="#2949a3" stroke-width="1.51"/><path d="M1781,251L1827,631L1850,-9Z" fill="#414984" stroke="#414984" stroke-width="1.51"/><path d="M1615,1012L1613,699L1323,910Z" fill="#257cdb" stroke="#257cdb" stroke-width="1.51"/><path d="M-439,-116L-427,237L-89,-66Z" fill="#96b4be" stroke="#96b4be" stroke-width="1.51"/><path d="M-435,1005L-127,1169L-104,844Z" fill="#6a95c4" stroke="#6a95c4" stroke-width="1.51"/><path d="M1568,1190L1615,1012L1323,910Z" fill="#267ace" stroke="#267ace" stroke-width="1.51"/><path d="M-106,-425L-439,-116L-89,-66Z" fill="#94b5b5" stroke="#94b5b5" stroke-width="1.51"/><path d="M118,1359L507,1349L235,890Z" fill="#5f78a9" stroke="#5f78a9" stroke-width="1.51"/><path d="M-106,-425L-331,-460L-439,-116Z" fill="#79908f" stroke="#79908f" stroke-width="1.51"/><path d="M143,-469L-331,-460L-106,-425Z" fill="#7e9695" stroke="#7e9695" stroke-width="1.51"/><path d="M1545,-422L1965,-406L1173,-477Z" fill="#4e698d" stroke="#4e698d" stroke-width="1.51"/><path d="M1850,-9L1965,-406L1545,-422Z" fill="#556d81" stroke="#556d81" stroke-width="1.51"/><path d="M1900,845L1965,-406L1850,-9Z" fill="#536083" stroke="#536083" stroke-width="1.51"/><path d="M1306,1351L1323,910L945,1260Z" fill="#2a61b2" stroke="#2a61b2" stroke-width="1.51"/><path d="M1306,1351L1568,1190L1323,910Z" fill="#2774c4" stroke="#2774c4" stroke-width="1.51"/><path d="M1615,1012L1900,845L1613,699Z" fill="#2964b2" stroke="#2964b2" stroke-width="1.51"/><path d="M507,1349L1306,1351L945,1260Z" fill="#263478" stroke="#263478" stroke-width="1.51"/><path d="M1853,1306L1900,845L1615,1012Z" fill="#285891" stroke="#285891" stroke-width="1.51"/><path d="M1827,631L1900,845L1850,-9Z" fill="#242871" stroke="#242871" stroke-width="1.51"/><path d="M-104,844L-127,1169L235,890Z" fill="#83bcf1" stroke="#83bcf1" stroke-width="1.51"/><path d="M-538,708L-104,844L-175,584Z" fill="#6578b3" stroke="#6578b3" stroke-width="1.51"/><path d="M507,1349L118,1359L1306,1351Z" fill="#2c2967" stroke="#2c2967" stroke-width="1.51"/><path d="M-127,1169L118,1359L235,890Z" fill="#7aa6c9" stroke="#7aa6c9" stroke-width="1.51"/><path d="M-439,-116L-538,708L-427,237Z" fill="#64628d" stroke="#64628d" stroke-width="1.51"/><path d="M-427,237L-538,708L-175,584Z" fill="#544f8e" stroke="#544f8e" stroke-width="1.51"/><path d="M-538,708L-435,1005L-104,844Z" fill="#5f7eb4" stroke="#5f7eb4" stroke-width="1.51"/><path d="M-127,1169L-431,1280L118,1359Z" fill="#5d798b" stroke="#5d798b" stroke-width="1.51"/><path d="M1568,1190L1853,1306L1615,1012Z" fill="#275489" stroke="#275489" stroke-width="1.51"/><path d="M1306,1351L1853,1306L1568,1190Z" fill="#264f80" stroke="#264f80" stroke-width="1.51"/><path d="M-538,708L-431,1280L-435,1005Z" fill="#5374a1" stroke="#5374a1" stroke-width="1.51"/><path d="M-435,1005L-431,1280L-127,1169Z" fill="#56708e" stroke="#56708e" stroke-width="1.51"/></svg>