<svg xmlns="http://www.w3.org/2000/svg" width="1440" height="900"><path d="M611,350L833,203L597,-87Z" fill="#8dbfde" stroke="#8dbfde" stroke-width="1.51"/><path d="M833,203L804,-77L597,-87Z" fill="#94c1e1" stroke="#94c1e1" stroke-width="1.51"/><path d="M597,-87L244,357L611,350Z" fill="#97c5e0" stroke="#97c5e0" stroke-width="1.51"/><path d="M833,203L1128,208L804,-77Z" fill="#83b6d9" stroke="#83b6d9" stroke-width="1.51"/><path d="M890,659L1128,208L833,203Z" fill="#69a9d3" stroke="#69a9d3" stroke-width="1.51"/><path d="M804,-77L901,-311L597,-87Z" fill="#9ec6e4" stroke="#9ec6e4" stroke-width="1.51"/><path d="M1136,-137L901,-311L804,-77Z" fill="#96bedf" stroke="#96bedf" stroke-width="1.51"/><path d="M597,-87L132,-138L244,357Z" fill="#afd1e7" stroke="#afd1e7" stroke-width="1.51"/><path d="M901,-311L547,-397L597,-87Z" fill="#a8cde7" stroke="#a8cde7" stroke-width="1.51"/><path d="M271,-309L132,-138L597,-87Z" fill="#bcd8eb" stroke="#bcd8eb" stroke-width="1.51"/><path d="M547,-397L271,-309L597,-87Z" fill="#b7d6ea" stroke="#b7d6ea" stroke-width="1.51"/><path d="M1128,208L1136,-137L804,-77Z" fill="#88b5da" stroke="#88b5da" stroke-width="1.51"/><path d="M244,357L213,534L611,350Z" fill="#8bbfdd" stroke="#8bbfdd" stroke-width="1.51"/><path d="M611,350L890,659L833,203Z" fill="#6daed6" stroke="#6daed6" stroke-width="1.51"/><path d="M-173,379L213,534L244,357Z" fill="#9bc5e2" stroke="#9bc5e2" stroke-width="1.51"/><path d="M213,534L644,709L611,350Z" fill="#78b3d8" stroke="#78b3d8" stroke-width="1.51"/><path d="M644,709L890,659L611,350Z" fill="#62a7d2" stroke="#62a7d2" stroke-width="1.51"/><path d="M132,-138L-15,-155L244,357Z" fill="#bdd7ec" stroke="#bdd7ec" stroke-width="1.51"/><path d="M271,-309L-15,-155L132,-138Z" fill="#c9def0" stroke="#c9def0" stroke-width="1.51"/><path d="M890,659L1188,569L1128,208Z" fill="#559dcd" stroke="#559dcd" stroke-width="1.51"/><path d="M1128,208L1633,181L1136,-137Z" fill="#77a4d1" stroke="#77a4d1" stroke-width="1.51"/><path d="M890,659L1139,882L1188,569Z" fill="#4190c5" stroke="#4190c5" stroke-width="1.51"/><path d="M644,709L811,840L890,659Z" fill="#529bcb" stroke="#529bcb" stroke-width="1.51"/><path d="M475,928L811,840L644,709Z" fill="#599acb" stroke="#599acb" stroke-width="1.51"/><path d="M1136,-137L1119,-417L901,-311Z" fill="#97bddf" stroke="#97bddf" stroke-width="1.51"/><path d="M901,-311L1119,-417L547,-397Z" fill="#a5c8e5" stroke="#a5c8e5" stroke-width="1.51"/><path d="M1513,-479L1119,-417L1136,-137Z" fill="#93b4db" stroke="#93b4db" stroke-width="1.51"/><path d="M213,534L475,928L644,709Z" fill="#6faad2" stroke="#6faad2" stroke-width="1.51"/><path d="M213,534L190,1005L475,928Z" fill="#76a7d2" stroke="#76a7d2" stroke-width="1.51"/><path d="M-15,-155L-173,379L244,357Z" fill="#b4d4e8" stroke="#b4d4e8" stroke-width="1.51"/><path d="M935,1270L1139,882L811,840Z" fill="#3982bd" stroke="#3982bd" stroke-width="1.51"/><path d="M811,840L1139,882L890,659Z" fill="#4490c6" stroke="#4490c6" stroke-width="1.51"/><path d="M-173,379L-89,725L213,534Z" fill="#97c0e1" stroke="#97c0e1" stroke-width="1.51"/><path d="M1139,882L1473,539L1188,569Z" fill="#3d89c2" stroke="#3d89c2" stroke-width="1.51"/><path d="M1188,569L1473,539L1128,208Z" fill="#5296c9" stroke="#5296c9" stroke-width="1.51"/><path d="M475,928L935,1270L811,840Z" fill="#4989c1" stroke="#4989c1" stroke-width="1.51"/><path d="M-89,725L190,1005L213,534Z" fill="#85b1d8" stroke="#85b1d8" stroke-width="1.51"/><path d="M-411,-127L-401,359L-173,379Z" fill="#c1dcec" stroke="#c1dcec" stroke-width="1.51"/><path d="M271,-309L-219,-378L-15,-155Z" fill="#d3e3f3" stroke="#d3e3f3" stroke-width="1.51"/><path d="M547,-397L-219,-378L271,-309Z" fill="#cde1f1" stroke="#cde1f1" stroke-width="1.51"/><path d="M-520,-408L-219,-378L547,-397Z" fill="#dce9f6" stroke="#dce9f6" stroke-width="1.51"/><path d="M1473,539L1633,181L1128,208Z" fill="#5d95c8" stroke="#5d95c8" stroke-width="1.51"/><path d="M1633,181L1616,-130L1136,-137Z" fill="#7c9fcf" stroke="#7c9fcf" stroke-width="1.51"/><path d="M-89,725L-33,931L190,1005Z" fill="#83a9d5" stroke="#83a9d5" stroke-width="1.51"/><path d="M-89,725L-355,990L-33,931Z" fill="#8baed7" stroke="#8baed7" stroke-width="1.51"/><path d="M-173,379L-345,638L-89,725Z" fill="#9cc2e2" stroke="#9cc2e2" stroke-width="1.51"/><path d="M-411,-127L-173,379L-15,-155Z" fill="#c9deef" stroke="#c9deef" stroke-width="1.51"/><path d="M-219,-378L-411,-127L-15,-155Z" fill="#d9e7f6" stroke="#d9e7f6" stroke-width="1.51"/><path d="M1119,-417L1513,-479L547,-397Z" fill="#9ec1e1" stroke="#9ec1e1" stroke-width="1.51"/><path d="M1616,-130L1513,-479L1136,-137Z" fill="#89a8d4" stroke="#89a8d4" stroke-width="1.51"/><path d="M-401,359L-345,638L-173,379Z" fill="#a8cce7" stroke="#a8cce7" stroke-width="1.51"/><path d="M1616,-130L1780,-119L1513,-479Z" fill="#849ccb" stroke="#849ccb" stroke-width="1.51"/><path d="M1633,181L1780,-119L1616,-130Z" fill="#7694c6" stroke="#7694c6" stroke-width="1.51"/><path d="M1473,539L1776,254L1633,181Z" fill="#5689bf" stroke="#5689bf" stroke-width="1.51"/><path d="M1781,581L1776,254L1473,539Z" fill="#4580ba" stroke="#4580ba" stroke-width="1.51"/><path d="M1645,980L1781,581L1473,539Z" fill="#2e75b4" stroke="#2e75b4" stroke-width="1.51"/><path d="M460,1319L935,1270L475,928Z" fill="#4f83bb" stroke="#4f83bb" stroke-width="1.51"/><path d="M460,1319L475,928L190,1005Z" fill="#6793c5" stroke="#6793c5" stroke-width="1.51"/><path d="M1776,254L1780,-119L1633,181Z" fill="#6b8dc0" stroke="#6b8dc0" stroke-width="1.51"/><path d="M205,1355L460,1319L190,1005Z" fill="#688bbd" stroke="#688bbd" stroke-width="1.51"/><path d="M1776,254L1961,-472L1780,-119Z" fill="#778dbc" stroke="#778dbc" stroke-width="1.51"/><path d="M1645,980L1473,539L1139,882Z" fill="#2c79b8" stroke="#2c79b8" stroke-width="1.51"/><path d="M-219,-378L-520,-408L-411,-127Z" fill="#e3eef8" stroke="#e3eef8" stroke-width="1.51"/><path d="M-411,-127L-520,-408L-401,359Z" fill="#d9e7f5" stroke="#d9e7f5" stroke-width="1.51"/><path d="M1513,-479L-520,-408L547,-397Z" fill="#bdd9ec" stroke="#bdd9ec" stroke-width="1.51"/><path d="M1458,1359L1234,1274L935,1270Z" fill="#2262a2" stroke="#2262a2" stroke-width="1.51"/><path d="M-66,1249L205,1355L190,1005Z" fill="#7491c4" stroke="#7491c4" stroke-width="1.51"/><path d="M-66,1249L190,1005L-33,931Z" fill="#7d9ccc" stroke="#7d9ccc" stroke-width="1.51"/><path d="M935,1270L1234,1274L1139,882Z" fill="#2b72b2" stroke="#2b72b2" stroke-width="1.51"/><path d="M1458,1359L935,1270L460,1319Z" fill="#336ca7" stroke="#336ca7" stroke-width="1.51"/><path d="M-345,638L-355,990L-89,725Z" fill="#93b7dc" stroke="#93b7dc" stroke-width="1.51"/><path d="M-460,1273L-355,990L-345,638Z" fill="#90acd7" stroke="#90acd7" stroke-width="1.51"/><path d="M-460,1273L-345,638L-401,359Z" fill="#9abcde" stroke="#9abcde" stroke-width="1.51"/><path d="M-355,990L-66,1249L-33,931Z" fill="#84a1cf" stroke="#84a1cf" stroke-width="1.51"/><path d="M1234,1274L1645,980L1139,882Z" fill="#216cb1" stroke="#216cb1" stroke-width="1.51"/><path d="M1781,581L1961,-472L1776,254Z" fill="#6686b7" stroke="#6686b7" stroke-width="1.51"/><path d="M1780,-119L1961,-472L1513,-479Z" fill="#8799c8" stroke="#8799c8" stroke-width="1.51"/><path d="M1234,1274L1458,1359L1645,980Z" fill="#155da5" stroke="#155da5" stroke-width="1.51"/><path d="M205,1355L1458,1359L460,1319Z" fill="#4373a9" stroke="#4373a9" stroke-width="1.51"/><path d="M1834,1262L1858,1030L1645,980Z" fill="#0f549c" stroke="#0f549c" stroke-width="1.51"/><path d="M1645,980L1858,1030L1781,581Z" fill="#1f64a8" stroke="#1f64a8" stroke-width="1.51"/><path d="M1781,581L1858,1030L1961,-472Z" fill="#4b79ae" stroke="#4b79ae" stroke-width="1.51"/><path d="M-355,990L-460,1273L-66,1249Z" fill="#869ccb" stroke="#869ccb" stroke-width="1.51"/><path d="M-66,1249L-460,1273L205,1355Z" fill="#7b8fbd" stroke="#7b8fbd" stroke-width="1.51"/><path d="M-520,-408L-460,1273L-401,359Z" fill="#b3d3ea" stroke="#b3d3ea" stroke-width="1.51"/><path d="M1458,1359L1834,1262L1645,980Z" fill="#0c549e" stroke="#0c549e" stroke-width="1.51"/></svg>